<?xml version="1.0" standalone="no"?>
<!DOCTYPE svg PUBLIC "-//W3C//DTD SVG 20010904//EN"
 "http://www.w3.org/TR/2001/REC-SVG-20010904/DTD/svg10.dtd">
<svg version="1.0" xmlns="http://www.w3.org/2000/svg"
 width="566.000000pt" height="566.000000pt" viewBox="0 0 566.000000 566.000000"
 preserveAspectRatio="xMidYMid meet">
<metadata>
Created by potrace 1.11, written by Peter Selinger 2001-2013
</metadata>
<g transform="translate(0.000000,566.000000) scale(0.100000,-0.100000)"
fill="#000000" stroke="none">
<path d="M1050 5135 l0 -505 -75 0 -74 0 -3 -147 -3 -148 -281 -5 -280 -5 -75
-37 c-129 -64 -212 -166 -244 -299 -22 -96 -22 -2492 0 -2588 32 -134 117
-239 245 -300 l75 -36 355 -5 355 -5 3 -522 2 -523 1785 0 1785 0 0 525 0 524
353 3 c343 3 353 4 410 27 119 47 221 159 258 281 19 63 19 95 17 1345 l-3
1280 -22 55 c-46 111 -142 208 -253 252 -52 21 -73 23 -332 26 l-278 3 0 150
0 149 -75 0 -75 0 0 505 0 505 -1785 0 -1785 0 0 -505z m3430 -225 l0 -580
-294 0 -294 0 -4 218 c-4 236 -7 251 -65 307 -16 15 -235 147 -488 293 -426
246 -464 266 -516 270 -40 3 -65 -1 -90 -13 -101 -51 -908 -522 -933 -544 -59
-54 -66 -84 -66 -318 l0 -213 -270 0 -270 0 0 580 0 580 1645 0 1645 0 0 -580z
m-1455 -13 c102 -34 192 -87 271 -160 57 -53 143 -163 133 -170 -2 -2 -73 -43
-157 -91 l-152 -87 -52 56 c-109 120 -264 152 -413 86 -59 -26 -132 -95 -161
-153 l-24 -48 -185 0 -185 0 0 23 c0 13 9 49 19 80 83 241 265 411 512 477
107 29 283 23 394 -13z m-1938 -1937 c41 -84 93 -144 165 -190 116 -76 15 -71
1608 -68 l1425 3 76 36 c129 62 224 182 249 318 6 32 10 273 10 590 l0 536
342 -5 c334 -5 344 -6 390 -28 26 -13 65 -44 87 -68 76 -86 71 8 71 -1389 0
-1422 7 -1310 -84 -1401 -83 -82 -94 -84 -478 -84 l-328 0 0 220 0 220 53 0
c75 0 123 16 169 58 98 88 105 222 17 317 -75 81 99 75 -2034 75 l-1901 0 -52
-26 c-217 -108 -135 -424 110 -424 l58 0 0 -220 0 -220 -332 0 c-329 0 -334 0
-384 24 -61 28 -115 82 -146 145 l-23 46 0 1270 0 1270 23 46 c30 61 86 116
147 145 49 24 54 24 383 24 l332 0 2 83 c2 45 5 -215 8 -578 l5 -660 32 -65z
m1659 1218 c2 -2 -45 -32 -105 -66 -162 -94 -153 -80 -93 -144 74 -78 151
-111 257 -112 69 -1 89 3 145 30 64 30 120 76 153 123 l16 24 153 -88 c84 -48
155 -89 157 -91 10 -9 -77 -120 -134 -172 -80 -73 -169 -125 -270 -159 -72
-24 -95 -27 -220 -27 -125 0 -148 3 -220 27 -146 49 -281 147 -360 262 -21 31
-44 54 -51 53 -20 -5 -413 -232 -414 -240 -1 -23 108 -92 516 -328 l459 -265
70 0 70 0 470 272 c419 241 473 276 500 315 l30 43 5 275 5 275 293 3 292 2 0
-558 0 -559 -30 -61 c-35 -68 -82 -115 -149 -146 l-46 -21 -1410 0 -1410 0
-52 24 c-59 26 -133 99 -160 157 -17 36 -18 84 -21 601 l-3 563 776 -4 c427
-2 778 -6 781 -8z m779 2 c4 -6 -10 -10 -34 -10 l-41 0 0 -40 0 -40 -45 0 -45
0 0 40 0 40 -41 0 c-24 0 -38 4 -34 10 4 6 55 10 120 10 65 0 116 -4 120 -10z
m300 0 c4 -6 -10 -10 -34 -10 l-41 0 0 -40 0 -40 -45 0 -45 0 0 40 0 40 -41 0
c-24 0 -38 4 -34 10 4 6 55 10 120 10 65 0 116 -4 120 -10z m648 -2457 c4
-124 7 -527 7 -895 l0 -668 -1645 0 -1645 0 0 895 0 895 1638 0 1639 0 6 -227z"/>
<path d="M1820 1430 l0 -70 1010 0 1010 0 0 70 0 70 -1010 0 -1010 0 0 -70z"/>
<path d="M1820 830 l0 -70 1010 0 1010 0 0 70 0 70 -1010 0 -1010 0 0 -70z"/>
</g>
</svg>
